# xmcd
#
# Track frame offsets:
#	150
#	27539
#	50217
#	82754
#	111029
#	150405
#	172600
#	211224
#	236390
#	259708
#	285117
#
# Disc length: 4383 seconds
# Revision: 1
# Processed by: cddbd v1.5.2PL0 Copyright (c) Steve Scherf et al.
# Submitted via: dBpowerAMP V12.0
#
DISCID=7c111d0b
DTITLE=Kirk Fletcher - Burning Blues (Live At The Baked Potato)
DYEAR=2014
DGENRE=Blues
TTITLE0=Funnybone
TTITLE1=Rockwithme
TTITLE2=El Medio Stomp
TTITLE3=Lenny
TTITLE4=I'm In Love
TTITLE5=Blues For Kleopatra
TTITLE6=Congo Square
TTITLE7=Natural Anthem
TTITLE8=Found Love
TTITLE9=Blues For Robben and Larry
TTITLE10=Ain't No Way
EXTD=
EXTT0=
EXTT1=
EXTT2=
EXTT3=
EXTT4=
EXTT5=
EXTT6=
EXTT7=
EXTT8=
EXTT9=
EXTT10=
PLAYORDER=
